# xmcd CD database file
#
# Track frame offsets:
#	150
#	16282
#	36777
#	55942
#	75302
#	94852
#	114582
#	132955
#	153267
#	170215
#	191875
#	214825
#	237700
#	255490
#	275362
#	294080
#	317287
#	338830
#
# Disc length: 4652 seconds
#
# Revision: 14
# Processed by: cddbd v1.5.2PL0 Copyright (c) Steve Scherf et al.
# Submitted via: CDex 1.70beta2
#
DISCID=f9122a12
DTITLE=Whitney Houston - The Greatest Hits  US Album [CD 1/2)
DYEAR=2000
DGENRE=Dancefloor
TTITLE0=You Give Good Love
TTITLE1=Saving All My Love For You
TTITLE2=Greatest Love Of All
TTITLE3=All At Once
TTITLE4=If You Say My Eyes Are Beautiful - Duet With Jermaine Jackson
TTITLE5=Didn't We Almost Have It All
TTITLE6=Where Do Broken Hearts Go
TTITLE7=All The Man That I Need
TTITLE8=Run To You
TTITLE9=I Have Nothing
TTITLE10=I Will Always Love You
TTITLE11=Exhale (Shoop Shoop)
TTITLE12=Why Does It Hurt So Bad
TTITLE13=I Believe In You And Me
TTITLE14=Heartbreak Hotel - Featuring Faith Evans and Kelly Price
TTITLE15=My Love Is Your Love
TTITLE16=Same Script, Different Cast - Duet With Deborah Cox
TTITLE17=Could I Have This Kiss Forever - Duet With Enrique Iglesias - Metro Mix
EXTD=\n YEAR: 2000
EXTT0=
EXTT1=
EXTT2=
EXTT3=
EXTT4=
EXTT5=
EXTT6=
EXTT7=
EXTT8=
EXTT9=
EXTT10=
EXTT11=
EXTT12=
EXTT13=
EXTT14=
EXTT15=
EXTT16=
EXTT17=
PLAYORDER=
